<svg width="184" height="51" viewBox="0 0 184 51" fill="none" xmlns="http://www.w3.org/2000/svg">
<path fill-rule="evenodd" clip-rule="evenodd" d="M151.551 33.4414C155.163 33.4414 158.021 29.2961 158.021 24.1953V11.8672H160.922V24.1953C160.922 30.9758 156.744 36.4464 151.609 36.4464C146.474 36.4464 142.297 30.9758 142.297 24.1953V11.8672H145.198V24.1953C145.082 29.3731 147.939 33.5185 151.537 33.5185L151.551 33.4414ZM81.6792 36.6304H78.7781V34.4267C76.9073 35.818 74.6795 36.5656 72.3959 36.5687C67.0292 36.6069 62.3381 32.7304 61.0521 27.195C59.7661 21.6596 62.2207 15.9094 66.9878 13.2904C71.7548 10.6713 77.5904 11.8667 81.099 16.1811L78.9667 18.1998C76.2991 15.0313 71.9416 14.2034 68.4057 16.1934C64.8698 18.1834 63.0667 22.4784 64.0357 26.6029C65.0047 30.7274 68.496 33.6186 72.4974 33.61C74.9367 33.6153 77.2569 32.4898 78.8507 30.5279H71.0179V27.4459H81.7082L81.6792 36.6304ZM32.6081 12.0664H29.707V36.5994H41.3112V33.5174H32.6081V12.0664ZM50.3496 30.5586C55.1562 30.5586 59.0527 26.419 59.0527 21.3125C59.0527 16.206 55.1562 12.0664 50.3496 12.0664C48.0414 12.0664 45.8277 13.0405 44.1956 14.7745C42.5634 16.5085 41.6465 18.8603 41.6465 21.3125C41.6465 26.419 45.543 30.5586 50.3496 30.5586ZM50.349 27.4785C53.5534 27.4785 56.151 24.7188 56.151 21.3145C56.151 17.9101 53.5534 15.1504 50.349 15.1504C47.1446 15.1504 44.5469 17.9101 44.5469 21.3145C44.5628 24.7067 47.1559 27.4478 50.349 27.4477V27.4785ZM56.151 36.6328V33.5508H44.5469V36.6328H56.151ZM101.059 21.3742C101.059 16.2677 97.1623 12.1281 92.3557 12.1281L92.3847 12.0665C90.0614 12.0582 87.8314 13.0371 86.1912 14.7854C84.5511 16.5336 83.637 18.906 83.6525 21.3742C83.6525 26.4807 87.5491 30.6203 92.3557 30.6203C97.1623 30.6203 101.059 26.4807 101.059 21.3742ZM92.3548 27.5391C95.5592 27.5391 98.1569 24.7793 98.1569 21.375C98.1569 17.9707 95.5592 15.2109 92.3548 15.2109C89.1504 15.2109 86.5527 17.9707 86.5527 21.375C86.6004 24.7552 89.2018 27.4639 92.3838 27.4466L92.3548 27.5391ZM98.1569 36.6934V33.6113H86.5527V36.6934H98.1569ZM104.148 12.0664H107.049V36.5686H104.148V12.0664ZM113.967 12.0678H111.066V36.6162H113.967V30.4521H114.417C117.732 30.8342 120.961 29.1705 122.731 26.1684C124.501 23.1663 124.501 19.3536 122.731 16.3515C120.961 13.3494 117.732 11.6857 114.417 12.0678C114.268 12.0509 114.117 12.0509 113.967 12.0678ZM113.968 15.1494V15.2213L113.953 15.2264L113.968 15.1494ZM113.968 15.2213C114.114 15.1699 114.264 15.1355 114.417 15.1185C116.654 14.802 118.861 15.8925 120.075 17.9142C121.289 19.9358 121.289 22.5216 120.075 24.5432C118.861 26.5648 116.654 27.6553 114.417 27.3388H113.968V15.2213ZM134.821 13.8786L134.869 13.8383L134.855 13.9153L134.821 13.8786ZM130.779 12.1431C132.296 12.0955 133.762 12.7255 134.821 13.8786L132.722 15.6412C131.966 14.8019 130.821 14.5039 129.785 14.8773C128.75 15.2507 128.011 16.2277 127.892 17.3826V17.6292C127.892 18.9853 128.777 19.8945 130.503 20.0177C137.146 20.4492 140.193 23.7624 140.193 28.1389V28.4163C139.842 31.9536 137.583 34.9491 134.409 36.0828C131.236 37.2166 127.732 36.2803 125.441 33.6866L127.66 31.8682C128.706 33.0585 130.191 33.7009 131.722 33.6249C134.624 33.7875 137.132 31.4905 137.408 28.4163V28.2005C137.408 24.086 133.607 23.3309 130.315 22.9919C127.268 22.6837 125.078 20.665 125.078 17.7524V17.6292C125.301 14.4801 127.807 12.0686 130.779 12.1431ZM180.285 36.5223H183.186L183.157 12.0664L173.583 25.4578L164.01 12.0664V36.5686H166.911V21.2663L173.598 30.5124L180.285 21.2663V36.5223Z" fill="#2E6E6D"/>
<path fill-rule="evenodd" clip-rule="evenodd" d="M15.7817 8.38313C15.7817 3.75326 12.2488 0 7.89084 0C3.53285 0 0 3.75326 0 8.38313V33.7329L6.49834 38.6795V50.7303H9.28334V38.6795L15.7817 33.7329V8.38313ZM12.9965 22.5617L9.2832 26.5067V22.8083L12.9965 18.8633V22.5617ZM6.55708 22.8083L2.84375 18.8633V22.5617L6.55708 26.5067V22.8083ZM12.9968 14.6713L7.89099 20.0957L2.78516 14.5481V10.8496L7.89099 16.274L12.9968 10.8496V14.6713ZM12.8225 6.98018C12.2162 4.61436 10.1987 2.96897 7.89076 2.95813V2.89648C5.56628 2.91485 3.54334 4.58992 2.95898 6.98018L7.89076 12.2042L12.8225 6.98018ZM2.78516 32.2371V26.6895L6.49849 30.6345V35.0418L2.78516 32.2371ZM9.2832 30.6345V35.0572L12.9965 32.2217V26.6895L9.2832 30.6345Z" fill="#2E6E6D"/>
</svg>
