<svg width="22" height="17" viewBox="0 0 22 17" fill="none" xmlns="http://www.w3.org/2000/svg">
<path d="M10.4389 4.3093C10.5132 4.235 10.6247 4.19785 10.7361 4.19785C10.8104 4.19785 10.9219 4.235 10.9962 4.3093L17.8688 9.91883V16.0113C17.8688 16.3456 17.5716 16.6057 17.2744 16.6057H13.0765C12.7793 16.6057 12.4821 16.3456 12.4821 16.0113V12.445C12.4821 12.1478 12.2221 11.8506 11.8877 11.8506H9.51019C9.213 11.8506 8.9158 12.1478 8.9158 12.445V16.0113C8.9158 16.3456 8.65576 16.6057 8.35856 16.6057H4.19786C3.86351 16.6057 3.60347 16.3456 3.60347 16.0113V9.95598L10.4389 4.3093ZM21.2493 8.13567C21.3608 8.20997 21.4351 8.35856 21.4351 8.47001C21.4351 8.58146 21.3979 8.69291 21.3236 8.7672L20.3578 9.91883C20.2835 10.0303 20.172 10.0674 20.0234 10.0674C19.912 10.0674 19.8005 10.0303 19.7262 9.95598L10.9962 2.78619C10.9219 2.71189 10.8104 2.67474 10.7361 2.67474C10.6247 2.67474 10.5132 2.71189 10.4389 2.78619L1.70886 9.95598C1.63456 10.0303 1.52311 10.0674 1.41167 10.0674C1.26307 10.0674 1.15162 10.0303 1.07732 9.91883L0.111446 8.7672C0.0742967 8.69291 -1.66148e-06 8.58146 -1.66148e-06 8.47001C-1.66148e-06 8.35856 0.0742967 8.20997 0.185744 8.13567L9.58449 0.371489C9.88168 0.148594 10.2903 -2.86847e-06 10.7361 -2.86847e-06C11.1448 -2.86847e-06 11.5534 0.148594 11.8506 0.371489L15.194 3.12053V0.445787C15.194 0.185743 15.3798 -2.86847e-06 15.6398 -2.86847e-06H17.7202C17.9431 -2.86847e-06 18.1659 0.185743 18.1659 0.445787V5.57237L21.2493 8.13567Z" fill="url(#paint0_linear_147_615)"/>
<defs>
<linearGradient id="paint0_linear_147_615" x1="3.24933" y1="-3.04787" x2="23.6184" y2="3.25304" gradientUnits="userSpaceOnUse">
<stop stop-color="#338F9A"/>
<stop offset="1" stop-color="#0C3467"/>
</linearGradient>
</defs>
</svg>
